<svg width="512" height="512" viewBox="0 0 512 512" fill="none" xmlns="http://www.w3.org/2000/svg">
<path d="M112 244.5V181C112 169 117.333 161.083 128 157.25C133.5 155.25 140.5 153.833 149 153V155.25C140.167 157.75 134.917 162.167 133.25 168.5C132.417 171.667 132 175.583 132 180.25V243.75C132 261.75 122.833 272.5 104.5 276C122.833 279.833 132 290.583 132 308.25V371.75C132 381.25 133.833 387.583 137.5 390.75C140.5 393.417 144.333 395.417 149 396.75V399C134.167 397.333 124.333 394.333 119.5 390C114.5 385.333 112 379 112 371V307.5C112 289.667 107.667 279.5 99 277V275C107.667 272.5 112 262.333 112 244.5ZM200.598 274.25H241.848V225.5H261.848V274.25H305.598V276.25H261.848V330.5H241.848V276.25H200.598V274.25ZM399.672 307.5V371C399.672 383 394.339 390.917 383.672 394.75C378.172 396.75 371.172 398.167 362.672 399V396.75C371.505 394.25 376.755 389.833 378.422 383.5C379.255 380.333 379.672 376.417 379.672 371.75V308.25C379.672 290.583 388.839 279.833 407.172 276C388.839 272.5 379.672 261.75 379.672 243.75V180.25C379.672 170.75 377.839 164.417 374.172 161.25C371.172 158.583 367.339 156.583 362.672 155.25V153C377.505 154.667 387.339 157.667 392.172 162C397.172 166.667 399.672 173 399.672 181V244.5C399.672 262.333 404.005 272.5 412.672 275V277C404.005 279.5 399.672 289.667 399.672 307.5Z" fill="#F5DE19"/>
</svg>
