<svg width="128" height="128" viewBox="0 0 128 128" fill="none" xmlns="http://www.w3.org/2000/svg">
<path d="M35.1 61.3V48.6C35.1 46.2 36.1667 44.6167 38.3 43.85C39.4 43.45 40.8 43.1667 42.5 43V43.45C40.7333 43.95 39.6833 44.8333 39.35 46.1C39.1833 46.7333 39.1 47.5167 39.1 48.45V61.15C39.1 64.75 37.2667 66.9 33.6 67.6C37.2667 68.3667 39.1 70.5167 39.1 74.05V86.75C39.1 88.65 39.4667 89.9167 40.2 90.55C40.8 91.0833 41.5667 91.4833 42.5 91.75V92.2C39.5333 91.8667 37.5667 91.2667 36.6 90.4C35.6 89.4667 35.1 88.2 35.1 86.6V73.9C35.1 70.3333 34.2333 68.3 32.5 67.8V67.4C34.2333 66.9 35.1 64.8667 35.1 61.3ZM52.8195 67.25H61.0695V57.5H65.0695V67.25H73.8195V67.65H65.0695V78.5H61.0695V67.65H52.8195V67.25ZM92.6344 73.9V86.6C92.6344 89 91.5677 90.5833 89.4344 91.35C88.3344 91.75 86.9344 92.0333 85.2344 92.2V91.75C87.001 91.25 88.051 90.3667 88.3844 89.1C88.551 88.4667 88.6344 87.6833 88.6344 86.75V74.05C88.6344 70.5167 90.4677 68.3667 94.1344 67.6C90.4677 66.9 88.6344 64.75 88.6344 61.15V48.45C88.6344 46.55 88.2677 45.2833 87.5344 44.65C86.9344 44.1167 86.1677 43.7167 85.2344 43.45V43C88.201 43.3333 90.1677 43.9333 91.1344 44.8C92.1344 45.7333 92.6344 47 92.6344 48.6V61.3C92.6344 64.8667 93.501 66.9 95.2344 67.4V67.8C93.501 68.3 92.6344 70.3333 92.6344 73.9Z" fill="#F5DE19"/>
</svg>
